<svg xmlns="http://www.w3.org/2000/svg" width="18" height="18" fill="none" viewBox="0 0 18 18"><path fill="currentColor" d="M9.004 4.957a4.033 4.033 0 0 0-4.04 4.04 4.033 4.033 0 0 0 4.04 4.039 4.033 4.033 0 0 0 4.039-4.04 4.033 4.033 0 0 0-4.04-4.039Zm0 6.666a2.63 2.63 0 0 1-2.627-2.626A2.629 2.629 0 0 1 9.004 6.37a2.629 2.629 0 0 1 2.626 2.627 2.631 2.631 0 0 1-2.626 2.626Zm5.146-6.831a.94.94 0 0 1-.942.942.942.942 0 1 1 .942-.942Zm2.676.956c-.06-1.262-.348-2.38-1.273-3.301-.921-.921-2.039-1.21-3.301-1.273-1.3-.074-5.2-.074-6.5 0-1.259.06-2.377.348-3.302 1.27-.924.92-1.209 2.038-1.272 3.3-.074 1.301-.074 5.2 0 6.501.06 1.262.348 2.38 1.272 3.301.925.921 2.04 1.21 3.302 1.273 1.3.074 5.2.074 6.5 0 1.262-.06 2.38-.348 3.301-1.273.921-.921 1.21-2.039 1.273-3.301.074-1.3.074-5.196 0-6.497Zm-1.68 7.893a2.659 2.659 0 0 1-1.498 1.497c-1.037.412-3.498.317-4.644.317-1.147 0-3.611.091-4.645-.317a2.659 2.659 0 0 1-1.497-1.497c-.412-1.037-.317-3.498-.317-4.644 0-1.147-.091-3.611.317-4.645.274-.689.805-1.22 1.497-1.497 1.037-.412 3.498-.317 4.645-.317 1.146 0 3.61-.091 4.644.317.689.274 1.22.805 1.497 1.497.412 1.037.317 3.498.317 4.645 0 1.146.095 3.61-.317 4.644Z"></path></svg>