<svg id="eOpexTQSrfR1" xmlns="http://www.w3.org/2000/svg" xmlns:xlink="http://www.w3.org/1999/xlink" viewBox="0 0 272 58" shape-rendering="geometricPrecision" text-rendering="geometricPrecision"><defs><linearGradient id="eOpexTQSrfR8-fill" x1="0.000122" y1="1662.65" x2="5122.64" y2="1662.65" spreadMethod="pad" gradientUnits="userSpaceOnUse" gradientTransform="translate(0 0)"><stop id="eOpexTQSrfR8-fill-0" offset="0%" stop-color="#2e84fc"/><stop id="eOpexTQSrfR8-fill-1" offset="100%" stop-color="#035ddb"/></linearGradient><linearGradient id="eOpexTQSrfR14-fill" x1="44.3075" y1="400.093" x2="2195.53" y2="400.093" spreadMethod="pad" gradientUnits="userSpaceOnUse" gradientTransform="translate(0 0)"><stop id="eOpexTQSrfR14-fill-0" offset="0%" stop-color="#00e1ff"/><stop id="eOpexTQSrfR14-fill-1" offset="100%" stop-color="#00b8ff"/></linearGradient><linearGradient id="eOpexTQSrfR16-fill" x1="44.3075" y1="400.093" x2="2195.53" y2="400.093" spreadMethod="pad" gradientUnits="userSpaceOnUse" gradientTransform="translate(0 0)"><stop id="eOpexTQSrfR16-fill-0" offset="0%" stop-color="#00e1ff"/><stop id="eOpexTQSrfR16-fill-1" offset="100%" stop-color="#00b8ff"/></linearGradient><linearGradient id="eOpexTQSrfR20-fill" x1="35.1905" y1="1100.37" x2="1622.81" y2="1100.37" spreadMethod="pad" gradientUnits="userSpaceOnUse" gradientTransform="translate(0 0)"><stop id="eOpexTQSrfR20-fill-0" offset="0%" stop-color="#00e1ff"/><stop id="eOpexTQSrfR20-fill-1" offset="100%" stop-color="#00b8ff"/></linearGradient><linearGradient id="eOpexTQSrfR22-fill" x1="35.1905" y1="1100.37" x2="1622.81" y2="1100.37" spreadMethod="pad" gradientUnits="userSpaceOnUse" gradientTransform="translate(0 0)"><stop id="eOpexTQSrfR22-fill-0" offset="0%" stop-color="#00e1ff"/><stop id="eOpexTQSrfR22-fill-1" offset="100%" stop-color="#00b8ff"/></linearGradient><linearGradient id="eOpexTQSrfR26-fill" x1="14.6294" y1="1100.31" x2="1601.26" y2="1100.31" spreadMethod="pad" gradientUnits="userSpaceOnUse" gradientTransform="translate(0 0)"><stop id="eOpexTQSrfR26-fill-0" offset="0%" stop-color="#00e1ff"/><stop id="eOpexTQSrfR26-fill-1" offset="100%" stop-color="#00b8ff"/></linearGradient><linearGradient id="eOpexTQSrfR28-fill" x1="14.6294" y1="1100.31" x2="1601.26" y2="1100.31" spreadMethod="pad" gradientUnits="userSpaceOnUse" gradientTransform="translate(0 0)"><stop id="eOpexTQSrfR28-fill-0" offset="0%" stop-color="#00e1ff"/><stop id="eOpexTQSrfR28-fill-1" offset="100%" stop-color="#00b8ff"/></linearGradient></defs><g transform="translate(0-.000267)"><g><g><g><g mask="url(#eOpexTQSrfR9)"><g><path d="M49.3508,57.4976c-1.7941,1.0343-4.0863.4218-5.1206-1.3723L32.9014,36.4969L21.5726,56.1228c-1.0343,1.7941-3.329,2.4065-5.1206,1.3723-1.7941-1.0343-2.409-3.329-1.3722-5.1206L26.4086,32.7486h-22.66017c-2.0711,0-3.748308-1.6772-3.748308-3.7483s1.677208-3.7483,3.748308-3.7483h29.15297c1.3392,0,2.5768.714,3.2452,1.8754L50.723,52.377c1.0369,1.7916.4219,4.0838-1.3722,5.1206Z" fill="url(#eOpexTQSrfR8-fill)"/></g><mask id="eOpexTQSrfR9" mask-type="alpha" x="-150%" y="-150%" height="400%" width="400%"><ellipse id="eOpexTQSrfR10" rx="32.9001" ry="28.371486" transform="matrix(1.1 0 0 1 20.648653 50.016127)" fill="#d2dbed" stroke-width="0"/></mask></g></g><g><g mask="url(#eOpexTQSrfR15)"><g><path id="eOpexTQSrfR14" d="M44.797,30.8757c.6709,1.1588,1.9059,1.8729,3.2451,1.8729h14.0098c2.0711,0,3.7483-1.6772,3.7483-3.7483s-1.6772-3.7483-3.7483-3.7483h-14.0098c-2.8843,0-4.6885,3.1231-3.2451,5.6237Z" transform="translate(0.000003 0.000002)" fill="url(#eOpexTQSrfR14-fill)"/></g><mask id="eOpexTQSrfR15" mask-type="alpha" x="-150%" y="-150%" height="400%" width="400%"><path d="M44.797,30.8757c.6709,1.1588,1.9059,1.8729,3.2451,1.8729h14.0098c2.0711,0,3.7483-1.6772,3.7483-3.7483s-1.6772-3.7483-3.7483-3.7483h-14.0098c-2.8843,0-4.6885,3.1231-3.2451,5.6237Z" transform="translate(.000001 0)" fill="url(#eOpexTQSrfR16-fill)"/></mask></g></g><g><g mask="url(#eOpexTQSrfR21)"><g><path d="M49.3508,0.502669c-1.7941-1.03428-4.0863-.421844-5.1206,1.372261L35.8544,16.3828c-1.0343,1.7941-.4219,4.0863,1.3722,5.1206c1.7916,1.0343,4.0838.4193,5.1206-1.3723L50.7231,5.62324c1.0343-1.79156.4218-4.08375-1.3723-5.120571Z" fill="url(#eOpexTQSrfR20-fill)"/></g><mask id="eOpexTQSrfR21" mask-type="alpha" x="-150%" y="-150%" height="400%" width="400%"><path id="eOpexTQSrfR22" d="M49.3508,0.502669c-1.7941-1.03428-4.0863-.421844-5.1206,1.372261L35.8544,16.3828c-1.0343,1.7941-.4219,4.0863,1.3722,5.1206c1.7916,1.0343,4.0838.4193,5.1206-1.3723L50.7231,5.62324c1.0343-1.79156.4218-4.08375-1.3723-5.120571Z" transform="translate(0 0.000002)" fill="url(#eOpexTQSrfR22-fill)"/></mask></g></g><g><g mask="url(#eOpexTQSrfR27)"><g><path d="M29.9333,16.3853L21.5726,1.87487c-1.0342-1.791569-3.3264-2.406547-5.1205-1.372267h-.0026C14.6554,1.53688,14.043,3.82907,15.0773,5.62318L23.4379,20.131c.6683,1.1588,1.9059,1.8729,3.2451,1.8729h.0026c2.8868.0026,4.6911-3.1206,3.2477-5.6186Z" fill="url(#eOpexTQSrfR26-fill)"/></g><mask id="eOpexTQSrfR27" mask-type="alpha" x="-150%" y="-150%" height="400%" width="400%"><path id="eOpexTQSrfR28" d="M29.9333,16.3853L21.5726,1.87487c-1.0342-1.791569-3.3264-2.406547-5.1205-1.372267h-.0026C14.6554,1.53688,14.043,3.82907,15.0773,5.62318L23.4379,20.131c.6683,1.1588,1.9059,1.8729,3.2451,1.8729h.0026c2.8868.0026,4.6911-3.1206,3.2477-5.6186Z" transform="translate(0 0.000001)" fill="url(#eOpexTQSrfR28-fill)"/></mask></g></g></g><g><g mask="url(#eOpexTQSrfR41)"><g><g><path d="M110.485,41.124h-23.491v-31.68406h6.8918v25.74516h16.6022v5.9389h-.003Z" fill="currentColor"/><path d="M111.438,29.2919c0-9.7965,8.495-12.3961,12.96-12.3961c6.112,0,12.224,4.1599,12.44,11.8319c0,1.8195-.13,2.991-.13,2.991h-18.81c.78,3.9008,5.202,4.3354,6.5,4.3354c3.599,0,5.375-1.9491,6.112-2.775l5.029,2.9046c-.953,1.3011-4.16,5.5475-11.138,5.5475-4.64,0-12.963-2.6429-12.963-12.4393Zm6.63-2.1677h11.919c-.26-2.1677-2.384-4.5513-5.634-4.5513-3.726,0-6.023,2.1244-6.285,4.5513Z" fill="currentColor"/><path d="M157.556,38.7401c-.996,1.3443-3.857,2.9046-7.237,2.9046-7.543,0-11.964-5.5907-11.964-12.4393s4.421-12.4393,11.964-12.4393c3.466,0,6.025,1.3875,7.237,2.991v-2.47h6.414v23.8392h-6.414v-2.3862Zm-6.284-16.2969c-4.117,0-6.544,2.8614-6.544,6.7622c0,3.7712,2.557,6.719,6.544,6.719c4.03,0,6.543-2.5564,6.543-6.719c0-3.944-2.513-6.7622-6.543-6.7622Z" fill="currentColor"/><path d="M184.991,38.7401c-.996,1.3443-3.857,2.9046-7.237,2.9046-7.542,0-11.964-5.5907-11.964-12.4393s4.422-12.4393,11.964-12.4393c3.469,0,6.025,1.3875,7.237,2.991v-11.39992h6.415v32.76912h-6.415v-2.3862Zm-6.284-16.2969c-4.117,0-6.544,2.8614-6.544,6.7622c0,3.7712,2.557,6.719,6.544,6.719c4.03,0,6.544-2.5565,6.544-6.719.002-3.944-2.514-6.7622-6.544-6.7622Z" fill="currentColor"/><path d="M193.444,37.9607l3.379-4.5082c1.863,1.2579,4.854,2.5565,7.716,2.5565c1.994,0,3.423-.9098,3.423-2.1245c0-1.6035-3.337-1.7763-4.595-1.9948-3.25-.5642-9.448-1.5171-9.448-7.4992c0-6.9782,7.542-7.5424,9.839-7.5424c3.772,0,6.806,1.0826,9.926,3.4231l-3.379,4.4217c-1.777-1.0393-4.117-2.2109-6.763-2.2109-1.257,0-3.12.6074-3.12,1.7764c0,1.6035,3.466,1.9948,4.508,2.1244c4.03.6938,9.491,1.3875,9.491,7.5424c0,4.9401-3.555,7.7584-9.796,7.7584-5.113.0051-8.579-1.6417-11.181-3.7229Z" fill="currentColor"/><path d="M224.566,32.629c0,1.3011.043,3.5552,2.948,3.5552.737,0,1.258-.0432,1.646-.0864v5.4611c-.78.0864-1.994.1728-2.904.1728-5.029,0-8.104-.9098-8.104-5.9389v-13.2194h-2.905v-5.6771h2.905v-6.3709h6.414v6.3709h4.767v5.6771h-4.767v10.0556Z" fill="currentColor"/><path d="M230.156,29.2919c0-9.7965,8.496-12.3961,12.961-12.3961c6.111,0,12.223,4.1599,12.439,11.8319c0,1.8195-.13,2.991-.13,2.991h-18.812c.78,3.9008,5.202,4.3354,6.5,4.3354c3.599,0,5.375-1.9491,6.112-2.775l5.029,2.9046c-.953,1.3011-4.16,5.5475-11.138,5.5475-4.641,0-12.961-2.6429-12.961-12.4393Zm6.631-2.1677h11.918c-.259-2.1677-2.384-4.5513-5.634-4.5513-3.728,0-6.023,2.1244-6.284,4.5513Z" fill="currentColor"/><path d="M264.138,30.5933v10.5334h-6.457v-23.8393h6.457v3.1638c2.427-3.207,6.457-3.6416,8.15-3.5984v6.3277c-1.563-.1296-8.15.1728-8.15,7.4128Z" fill="currentColor"/></g></g><mask id="eOpexTQSrfR41" mask-type="alpha" x="-150%" y="-150%" height="400%" width="400%"><rect id="eOpexTQSrfR42" width="184.29" height="33.37" rx="0" ry="0" transform="translate(86.9901 8.360111)" fill="#d9d9d9"/></mask></g></g></g></g>
<script async="" xlink:href="https://cdn.svgator.com/ply/5c7f360c.js?v=2022-05-04" src="https://cdn.svgator.com/ply/5c7f360c.js?v=2022-05-04"/><script><![CDATA[
(function(s,i,u,o,c,w,d,t,n,x,e,p,a,b){w[o]=w[o]||{};w[o][s]=w[o][s]||[];w[o][s].push(i);e=d.createElementNS(n,t);e.async=true;e.setAttributeNS(x,'href',[u,s,'.','j','s','?','v','=',c].join(''));e.setAttributeNS(null,'src',[u,s,'.','j','s','?','v','=',c].join(''));p=d.getElementsByTagName(t)[0];p.parentNode.insertBefore(e,p);})('5c7f360c',{"root":"eOpexTQSrfR1","version":"2022-05-04","animations":[{"elements":{"eOpexTQSrfR10":{"transform":{"data":{"o":{"x":14.574674,"y":58.000111,"type":"corner"},"t":{"x":5.521799,"y":-7.983984}},"keys":{"s":[{"t":0,"v":{"x":0,"y":0},"e":[0.25,0.46,0.45,0.94]},{"t":600,"v":{"x":1.1,"y":1},"e":[0.25,0.46,0.45,0.94]}]}}},"eOpexTQSrfR14":{"transform":{"data":{"o":{"x":65.8002,"y":29.3135,"type":"corner"},"t":{"x":-65.800197,"y":-29.313498}},"keys":{"s":[{"t":1000,"v":{"x":0,"y":0},"e":[0.25,0.46,0.45,0.94]},{"t":1200,"v":{"x":1,"y":1},"e":[0.215,0.61,0.355,1]}]}}},"eOpexTQSrfR22":{"transform":{"data":{"o":{"x":51.225616,"y":0.000553,"type":"corner"},"t":{"x":-51.225616,"y":-0.000551}},"keys":{"s":[{"t":1000,"v":{"x":0,"y":0},"e":[0.25,0.46,0.45,0.94]},{"t":1200,"v":{"x":1,"y":1},"e":[0.215,0.61,0.355,1]}]}}},"eOpexTQSrfR28":{"transform":{"data":{"o":{"x":14.574674,"y":0.000553,"type":"corner"},"t":{"x":-14.574674,"y":-0.000552}},"keys":{"s":[{"t":1000,"v":{"x":0,"y":0},"e":[0.25,0.46,0.45,0.94]},{"t":1200,"v":{"x":1,"y":1},"e":[0.215,0.61,0.355,1]}]}}},"eOpexTQSrfR42":{"transform":{"data":{"o":{"x":86.994,"y":25.00094,"type":"corner"},"t":{"x":-0.0039,"y":-16.640829}},"keys":{"s":[{"t":1000,"v":{"x":0,"y":1},"e":[0.215,0.61,0.355,1]},{"t":1200,"v":{"x":1,"y":1},"e":[0.215,0.61,0.355,1]}]}}}},"s":"MBDA1Y2Q4N2ZKYzFkMmJNmYmVkMWM2Y2NjYjdXmOTc5MDhkOGRLOGQ4YOTdmYzFjNmNmYzJjMXGQxYzZjY2NiTzdmSUCs5NzhlODk3ZmM2RGQAxYzJjZmJlZDFjNmNjMY2JkMDdmOTc4ZDg5NX2ZjM2M2YzljOTdmOTNc4ZTg5N2ZiZVZjOWQTxYzJjZmNiYmVkMWMyWN2Y5N2MzYmVjOWQwYCzI4OTdmZDBjZGMyYzKJjMTdmOTc4ZTg5N2ZLjM2NkZDA3Zjk3OTM4IZEJkYQ|"}],"options":"MHDAxMDg4MmY4MFk4MTXZlN2Y4MTJmNDdCMmYO3OTdjNmU3MTJmOGE/O"},'https://cdn.svgator.com/ply/','__SVGATOR_PLAYER__','2022-05-04',window,document,'script','http://www.w3.org/2000/svg','http://www.w3.org/1999/xlink')
]]></script>
</svg>