<svg xmlns="http://www.w3.org/2000/svg" width="200" height="43" viewbox="0 0 200 43" fill="none"><path fill="url(#a)" d="M36.249 42.233a2.753 2.753 0 0 1-3.761-1.008l-8.321-14.417-8.322 14.415a2.753 2.753 0 1 1-4.769-2.753l8.322-14.416H2.753a2.752 2.752 0 1 1 0-5.506h21.414a2.75 2.75 0 0 1 2.383 1.378l10.707 18.546c.762 1.316.31 3-1.008 3.761Z"/><path fill="url(#b)" d="M32.904 22.679a2.753 2.753 0 0 0 2.384 1.375h10.29a2.752 2.752 0 1 0 0-5.506h-10.29c-2.119 0-3.444 2.294-2.384 4.13Z"/><path fill="url(#c)" d="M36.249.37a2.753 2.753 0 0 0-3.761 1.007l-6.152 10.657a2.753 2.753 0 1 0 4.769 2.753L37.257 4.13c.76-1.316.31-3-1.008-3.76Z"/><path fill="url(#d)" d="m21.986 12.035-6.14-10.658A2.754 2.754 0 0 0 12.083.37h-.002a2.753 2.753 0 0 0-1.008 3.761l6.141 10.657c.491.85 1.4 1.375 2.384 1.375h.002c2.12.002 3.446-2.292 2.385-4.127Z"/><path fill="#191919" d="M81.153 30.206H63.9V6.934h5.062v18.91h12.194v4.362h-.002ZM81.853 21.515c0-7.195 6.24-9.105 9.52-9.105 4.489 0 8.978 3.056 9.137 8.691 0 1.337-.096 2.197-.096 2.197H86.598c.573 2.865 3.82 3.184 4.775 3.184 2.643 0 3.947-1.431 4.489-2.038l3.694 2.134c-.7.955-3.056 4.074-8.181 4.074-3.409 0-9.522-1.94-9.522-9.137Zm4.87-1.592h8.754c-.19-1.592-1.75-3.343-4.138-3.343-2.736 0-4.424 1.56-4.616 3.343ZM115.728 28.456c-.732.987-2.834 2.133-5.316 2.133-5.54 0-8.788-4.106-8.788-9.137 0-5.03 3.248-9.137 8.788-9.137 2.546 0 4.425 1.02 5.316 2.197v-1.814h4.711v17.51h-4.711v-1.752Zm-4.616-11.97c-3.024 0-4.807 2.1-4.807 4.966 0 2.77 1.878 4.935 4.807 4.935 2.96 0 4.806-1.878 4.806-4.935 0-2.897-1.846-4.967-4.806-4.967ZM135.879 28.455c-.731.988-2.833 2.134-5.316 2.134-5.54 0-8.787-4.107-8.787-9.137s3.247-9.137 8.787-9.137c2.548 0 4.426 1.02 5.316 2.197V6.139h4.712v24.07h-4.712v-1.754Zm-4.616-11.97c-3.024 0-4.806 2.102-4.806 4.967 0 2.77 1.878 4.935 4.806 4.935 2.961 0 4.807-1.878 4.807-4.935.002-2.897-1.846-4.967-4.807-4.967ZM142.088 27.883l2.482-3.311c1.368.924 3.565 1.877 5.667 1.877 1.465 0 2.514-.668 2.514-1.56 0-1.178-2.45-1.305-3.374-1.465-2.388-.415-6.94-1.115-6.94-5.509 0-5.125 5.54-5.54 7.227-5.54 2.77 0 4.999.796 7.291 2.515l-2.483 3.247c-1.304-.763-3.023-1.623-4.967-1.623-.924 0-2.292.446-2.292 1.304 0 1.178 2.546 1.466 3.312 1.56 2.96.51 6.971 1.02 6.971 5.54 0 3.63-2.611 5.7-7.195 5.7-3.756.003-6.302-1.206-8.213-2.735ZM164.948 23.967c0 .955.031 2.611 2.165 2.611.541 0 .924-.032 1.209-.063v4.01c-.573.064-1.465.128-2.133.128-3.694 0-5.953-.668-5.953-4.362v-9.71h-2.133v-4.17h2.133V7.73h4.712v4.68h3.501v4.17h-3.501v7.386ZM169.054 21.515c0-7.195 6.24-9.105 9.519-9.105 4.49 0 8.979 3.056 9.137 8.691 0 1.337-.095 2.197-.095 2.197h-13.818c.573 2.865 3.821 3.184 4.775 3.184 2.643 0 3.947-1.431 4.489-2.038l3.694 2.134c-.7.955-3.056 4.074-8.182 4.074-3.408 0-9.519-1.94-9.519-9.137Zm4.87-1.592h8.754c-.19-1.592-1.751-3.343-4.138-3.343-2.738 0-4.424 1.56-4.616 3.343ZM194.014 22.471v7.737h-4.743v-17.51h4.743v2.324c1.782-2.356 4.743-2.675 5.986-2.643v4.648c-1.148-.096-5.986.127-5.986 5.444Z"/><defs><linearGradient id="a" x1="0" x2="3762.67" y1="1221.25" y2="1221.25" gradientUnits="userSpaceOnUse"><stop stop-color="#2E84FC"/><stop offset="1" stop-color="#035DDB"/></linearGradient><linearGradient id="b" x1="32.544" x2="1612.66" y1="293.875" y2="293.875" gradientUnits="userSpaceOnUse"><stop stop-color="#00E1FF"/><stop offset="1" stop-color="#00B8FF"/></linearGradient><linearGradient id="c" x1="25.848" x2="1191.98" y1="808.238" y2="808.238" gradientUnits="userSpaceOnUse"><stop stop-color="#00E1FF"/><stop offset="1" stop-color="#00B8FF"/></linearGradient><linearGradient id="d" x1="10.745" x2="1176.15" y1="808.198" y2="808.198" gradientUnits="userSpaceOnUse"><stop stop-color="#00E1FF"/><stop offset="1" stop-color="#00B8FF"/></linearGradient></defs></svg>