<svg width="16" height="16" viewBox="0 0 16 16" fill="none" xmlns="http://www.w3.org/2000/svg">
<path d="M14.2063 0.352148C14.3967 0.158719 14.7054 0.158719 14.8957 0.352148L15.5851 1.05262C15.7755 1.24604 15.7755 1.55965 15.5851 1.75308L2.48643 15.062C2.29606 15.2554 1.9874 15.2554 1.79703 15.062L1.10762 14.3615C0.91725 14.1681 0.91725 13.8545 1.10762 13.661L14.2063 0.352148Z" fill="#627397"/>
<path d="M15.8221 13.661C16.0124 13.8544 16.0124 14.168 15.8221 14.3614L15.1327 15.0619C14.9423 15.2553 14.6336 15.2553 14.4433 15.0619L1.34455 1.75304C1.15418 1.55961 1.15418 1.246 1.34455 1.05257L2.03396 0.352103C2.22433 0.158674 2.53299 0.158674 2.72336 0.352103L15.8221 13.661Z" fill="#627397"/>
</svg>
