<svg xmlns="http://www.w3.org/2000/svg" viewBox="0 0 512 512"><path fill="currentColor" d="M512 275.06v4.5c-1.89 44.54-33.41 81.37-77.56 87.95q-6.68 1-19.94 1-42.29 0-84.59-.03-4.3-.01-6.53-1.01c-9.95-4.5-6.14-18.99 4.86-19.02q41.48-.14 82.94-.23 14.2-.03 19.95-.88c40.81-6 67.96-45.87 58.37-86.38-6.98-29.47-31.98-50.52-61.97-53.77-3.55-.38-9.3.17-12.99-2.28q-5.06-3.35-4.29-10.65c5.18-48.79-20.32-95.3-64.92-116.33-55.35-26.11-120.6-3.55-149.29 50.13-4.69 8.79-9.01 29.44-24.83 15.53-33.05-29.05-85.12-6.99-85.71 37.64-.09 6.72-1.68 10.92-8.27 12.96-21.29 6.58-38.59 20.87-48.53 40.65-18.13 36.06-5.05 80.93 29.6 101.78q19.08 11.48 42.71 11.56 39.73.13 79.46.05 5.2-.01 7.45.89c7.73 3.07 8.73 13.74 1.33 17.9q-2.61 1.47-8.8 1.47-38.07.04-76.14-.01-13.1-.02-19.94-1.02C36 360.39 2.53 320.43 0 271.94v-4.75c1.45-38.77 24.41-73.52 60.48-88.54q2.17-.91 4.28-1.95a.93.92-10.8 0 0 .5-.73c4.73-54.64 64.54-83.59 110.63-54.51a.46.45 29.1 0 0 .65-.18c22.46-45 68.41-74.2 118.51-74.61 77.49-.65 138.45 62.13 136.37 139.7a.57.56 5.7 0 0 .48.58q9.89 1.63 14.35 3.01c38.5 11.93 64.09 44.84 65.75 85.1Z"/><path fill="currentColor" d="M245.94 445.91q-.38-88.5-.12-177.02.01-4.42.96-6.5c3.57-7.88 14.41-8.2 18.08-.56q1.38 2.85 1.38 8.7.02 87.01.01 175.08 0 .77.54.22 15.54-15.56 31.32-31.28c3.5-3.49 7.51-5.85 12.11-4.31q8 2.68 6.75 12.04c-.26 1.94-3.18 5.55-5.01 7.36q-27.3 27.15-55.16 55.23a1.09 1.08-45.2 0 1-1.54.01q-27.65-27.62-55.7-55.69c-2.89-2.88-5.25-6.43-4.55-10.71 1.44-8.71 11.36-11.45 17.61-5.21q16.42 16.38 32.86 32.83.46.47.46-.19Z"/></svg>